<svg width="60" height="60" viewBox="0 0 60 60" fill="none" xmlns="http://www.w3.org/2000/svg">
<g id="Group">
<path id="Vector" d="M50 22.5C50.6123 22.5001 51.2033 22.7249 51.6609 23.1318C52.1185 23.5387 52.4109 24.0994 52.4825 24.7075L52.5 25V37.5C52.5 40.0656 51.5139 42.5331 49.7457 44.392C47.9775 46.251 45.5624 47.3592 43 47.4875L42.5 47.5H20.2675L20.2175 48.5375L20.1325 49.835C20.065 50.7 19.2525 51.2275 18.555 50.86L17.79 50.45L16.89 49.9425L16.395 49.65L15.32 48.9925C15.1284 48.8713 14.9375 48.7488 14.7475 48.625L13.59 47.85L13.065 47.4825L12.1225 46.8L11.335 46.2C11.2237 46.1139 11.1129 46.0272 11.0025 45.94C10.4125 45.47 10.44 44.525 11.06 44.035L11.76 43.4925L12.61 42.8625L13.61 42.1575L14.75 41.395L15.905 40.6675L16.945 40.045L17.8575 39.5325L18.625 39.12C19.3125 38.7625 20.0525 39.21 20.12 40.02L20.1825 40.8875L20.2425 41.925L20.2675 42.5H42.5C43.7614 42.5004 44.9764 42.024 45.9014 41.1663C46.8263 40.3085 47.3929 39.1329 47.4875 37.875L47.5 37.5V25C47.5 24.337 47.7634 23.7011 48.2322 23.2322C48.7011 22.7634 49.337 22.5 50 22.5ZM41.445 9.1375L42.21 9.55L43.11 10.0575L43.605 10.35L44.68 11.0075L45.2525 11.375L46.41 12.15L46.935 12.5175L47.8775 13.2L48.665 13.8L48.9975 14.06C49.5875 14.53 49.56 15.475 48.94 15.965L48.24 16.5075L47.39 17.1375L46.39 17.8425L45.25 18.605L44.095 19.3325L43.055 19.955L42.1425 20.4675L41.375 20.88C40.6875 21.2375 39.945 20.79 39.88 19.98L39.8175 19.1125L39.7575 18.075C39.7483 17.8834 39.7399 17.6917 39.7325 17.5H17.5C16.1739 17.5 14.9021 18.0268 13.9645 18.9645C13.0268 19.9021 12.5 21.1739 12.5 22.5V35C12.5 35.663 12.2366 36.2989 11.7678 36.7678C11.2989 37.2366 10.663 37.5 10 37.5C9.33696 37.5 8.70107 37.2366 8.23223 36.7678C7.76339 36.2989 7.5 35.663 7.5 35V22.5C7.5 19.8478 8.55357 17.3043 10.4289 15.4289C12.3043 13.5536 14.8478 12.5 17.5 12.5H39.7325L39.7825 11.4625L39.8375 10.5625L39.8675 10.165C39.935 9.3 40.7475 8.77 41.445 9.1375Z" fill="#EA377B"/>
</g>
</svg>
