<svg width="60" height="60" viewBox="0 0 60 60" fill="none" xmlns="http://www.w3.org/2000/svg">
<g id="24 hours Icon">
<path id="Vector" d="M32.5 5.125V10.175C42.375 11.4 50 19.8 50 30C50 38.025 45.2 45 38.2 48.2L32.5 42.5V55H45L41.95 51.95C49.775 47.675 55 39.4 55 30C55 17.05 45.125 6.375 32.5 5.125ZM27.5 5C22.625 5.5 18 7.4 14.2 10.525L17.75 14.075C20.5877 11.8875 23.9496 10.4824 27.5 10V5ZM10.5 14.2C7.4 18 5.5 22.625 5 27.5H10C10.475 23.95 11.875 20.575 14.075 17.75L10.5 14.2ZM15 20V25H22.5V27.5H20C17.25 27.5 15 29.75 15 32.5V40H27.5V35H20V32.5H22.5C25.275 32.5 27.5 30.275 27.5 27.5V25C27.5 23.6739 26.9732 22.4021 26.0355 21.4645C25.0979 20.5268 23.8261 20 22.5 20H15ZM30 20V32.5H37.5V40H42.5V32.5H45V27.5H42.5V20H37.5V27.5H35V20H30ZM5 32.5C5.5 37.375 7.425 42 10.55 45.8L14.1 42.25C11.905 39.414 10.4914 36.0524 10 32.5H5ZM17.775 45.925L14.2 49.475C17.9984 52.5763 22.6221 54.4971 27.5 55V50C23.9542 49.5286 20.5977 48.1221 17.775 45.925Z" fill="#EA377B"/>
</g>
</svg>
